<?xml version="1.0" encoding="UTF-8" standalone="no"?>
<!-- Created with Inkscape (http://www.inkscape.org/) -->
<svg xmlns:dc="http://purl.org/dc/elements/1.1/" xmlns:cc="http://web.resource.org/cc/" xmlns:rdf="http://www.w3.org/1999/02/22-rdf-syntax-ns#" xmlns:svg="http://www.w3.org/2000/svg" xmlns="http://www.w3.org/2000/svg" xmlns:sodipodi="http://sodipodi.sourceforge.net/DTD/sodipodi-0.dtd" xmlns:inkscape="http://www.inkscape.org/namespaces/inkscape" height="256.22061" id="svg4458" inkscape:version="0.45.1" sodipodi:docbase="/Users/johnolsen/Desktop/openclipart-0.20-pre/recovered-zerobyte-files/unsorted" sodipodi:docname="thought_cloud_jon_phill_02r.svg" sodipodi:version="0.32" width="234.99988" inkscape:output_extension="org.inkscape.output.svg.inkscape" version="1.0">
  <defs id="defs4460"/>
  <sodipodi:namedview bordercolor="#666666" borderopacity="1.0" id="base" inkscape:current-layer="layer1" inkscape:cx="375" inkscape:cy="520" inkscape:document-units="px" inkscape:pageopacity="0.0" inkscape:pageshadow="2" inkscape:window-height="510" inkscape:window-width="754" inkscape:window-x="0" inkscape:window-y="438" inkscape:zoom="0.35" pagecolor="#ffffff"/>
  <g id="layer1" inkscape:groupmode="layer" inkscape:label="Layer 1" transform="translate(-267.98298,-294.40954)">
    <path d="M 404.82773,299.83793 C 390.22963,299.83793 377.56518,307.70801 370.48083,319.33078 C 363.90815,314.68689 355.94082,311.87906 347.28681,311.87908 C 325.01481,311.87908 306.91934,329.97456 306.91934,352.24655 C 306.91934,353.88322 307.2231,355.44757 307.41283,357.0334 C 288.17814,360.10248 273.41137,376.61535 273.41137,396.70999 C 273.41137,416.62054 287.89441,433.09939 306.86999,436.38657 C 306.48549,438.62212 306.1791,440.90134 306.1791,443.24608 C 306.1791,465.51809 324.27456,483.56421 346.54657,483.56421 C 357.45549,483.56421 367.31225,479.20668 374.5768,472.16459 C 381.98006,480.9708 392.92489,486.72254 405.32122,486.72254 C 423.00812,486.72254 437.87677,475.23091 443.31994,459.3832 C 447.67667,460.99428 452.32187,462.04805 457.23635,462.04805 C 479.50836,462.04805 497.55446,443.95259 497.55447,421.68058 C 497.55447,410.48096 492.98863,400.3708 485.61202,393.05816 C 489.33611,386.94832 491.6326,379.85746 491.6326,372.18354 C 491.6326,349.91153 473.53714,331.8654 451.26512,331.86542 C 448.9206,331.86542 446.64096,332.12254 444.40561,332.50696 C 440.80916,313.91248 424.46771,299.83793 404.82773,299.83793 z " id="path3422" style="opacity:1;fill:#ffffff;fill-opacity:1;stroke:#000000;stroke-width:10.85677719;stroke-linecap:butt;stroke-linejoin:round;stroke-miterlimit:4;stroke-dasharray:none;stroke-dashoffset:0;stroke-opacity:1"/>
    <path d="M 183.84595 484.92569 A 9.5391769 9.5391769 0 1 1  164.7676,484.92569 A 9.5391769 9.5391769 0 1 1  183.84595 484.92569 z" id="path3424" sodipodi:cx="174.30678" sodipodi:cy="484.92569" sodipodi:rx="9.5391769" sodipodi:ry="9.5391769" sodipodi:type="arc" style="opacity:1;fill:#ffffff;fill-opacity:1;stroke:#000000;stroke-width:4.79874945;stroke-linecap:butt;stroke-linejoin:round;stroke-miterlimit:4;stroke-dasharray:none;stroke-dashoffset:0;stroke-opacity:1" transform="matrix(1.579168,0,0,1.579168,170.617,-261.4322)"/>
    <path d="M 183.84595 484.92569 A 9.5391769 9.5391769 0 1 1  164.7676,484.92569 A 9.5391769 9.5391769 0 1 1  183.84595 484.92569 z" id="path3426" sodipodi:cx="174.30678" sodipodi:cy="484.92569" sodipodi:rx="9.5391769" sodipodi:ry="9.5391769" sodipodi:type="arc" style="opacity:1;fill:#ffffff;fill-opacity:1;stroke:#000000;stroke-width:5.4027729;stroke-linecap:butt;stroke-linejoin:round;stroke-miterlimit:4;stroke-dasharray:none;stroke-dashoffset:0;stroke-opacity:1" transform="matrix(1.096081,0,0,1.096081,274.9075,5.695671)"/>
  </g>
  <metadata>
    <rdf:RDF>
      <cc:Work>
        <dc:format>image/svg+xml</dc:format>
        <dc:type rdf:resource="http://purl.org/dc/dcmitype/StillImage"/>
        <cc:license rdf:resource="http://creativecommons.org/licenses/publicdomain/"/>
        <dc:publisher>
          <cc:Agent rdf:about="http://openclipart.org/">
            <dc:title>Open Clip Art Library</dc:title>
          </cc:Agent>
        </dc:publisher>
        <dc:title>thought cloud</dc:title>
        <dc:date>2010-04-03T07:00:08</dc:date>
        <dc:description>Graphics by Jon Phillips. From OCAL 0.18 release.</dc:description>
        <dc:source>http://openclipart.org/detail/36367/thought-cloud-by-anonymous-36367</dc:source>
        <dc:creator>
          <cc:Agent>
            <dc:title>Anonymous</dc:title>
          </cc:Agent>
        </dc:creator>
        <dc:subject>
          <rdf:Bag>
            <rdf:li>balloon</rdf:li>
            <rdf:li>bubble</rdf:li>
            <rdf:li>clip art</rdf:li>
            <rdf:li>clipart</rdf:li>
            <rdf:li>cloud</rdf:li>
            <rdf:li>comic</rdf:li>
            <rdf:li>thinking</rdf:li>
            <rdf:li>thought</rdf:li>
          </rdf:Bag>
        </dc:subject>
      </cc:Work>
      <cc:License rdf:about="http://creativecommons.org/licenses/publicdomain/">
        <cc:permits rdf:resource="http://creativecommons.org/ns#Reproduction"/>
        <cc:permits rdf:resource="http://creativecommons.org/ns#Distribution"/>
        <cc:permits rdf:resource="http://creativecommons.org/ns#DerivativeWorks"/>
      </cc:License>
    </rdf:RDF>
  </metadata>
</svg>
